<?xml version="1.0" encoding="UTF-8" standalone="no"?>
<svg width="48px" height="48px" viewBox="0 0 48 48" version="1.1" xmlns="http://www.w3.org/2000/svg" xmlns:xlink="http://www.w3.org/1999/xlink">
    <!-- Generator: Sketch 41 (35326) - http://www.bohemiancoding.com/sketch -->
    <title>europe</title>
    <desc>Created with Sketch.</desc>
    <defs></defs>
    <g id="Symbols" stroke="none" stroke-width="1" fill="none" fill-rule="evenodd">
        <g id="europe">
            <g>
                <circle id="Oval-134" fill="#0068D1" cx="24" cy="24" r="24"></circle>
                <path d="M23.9999999,15.2385417 L22.7460582,15.9389803 L22.9855397,14.4554276 L21.9710794,13.4047699 L23.3730293,13.1883222 L24,11.8385417 L24.6269712,13.1883226 L26.0289209,13.4047709 L25.0144602,14.4554279 L25.2539417,15.9389803 L23.9999999,15.2385417 L23.9999999,15.2385417 Z M28.3807291,16.4123545 L26.9445645,16.3919813 L27.8937379,15.2269277 L27.5405184,13.8098013 L28.8628664,14.323327 L30.0807291,13.4678682 L29.9488117,14.9502983 L31.0547115,15.8387229 L29.6508344,16.2413882 L29.1164552,17.645923 L28.3807291,16.4123545 L28.3807291,16.4123545 Z M31.5876456,19.6192708 L30.3540771,18.8835447 L31.758612,18.3491654 L32.1612781,16.9452882 L33.0497021,18.0511885 L34.532132,17.9192709 L33.6766728,19.1371342 L34.1901979,20.4594825 L32.773072,20.1062622 L31.6080187,21.0554355 L31.5876456,19.6192708 L31.5876456,19.6192708 Z M32.7614584,23.9999999 L32.0610197,22.7460582 L33.5445723,22.9855397 L34.5952301,21.9710794 L34.8116779,23.3730293 L36.1614584,24 L34.8116773,24.6269712 L34.5952291,26.0289209 L33.544572,25.0144602 L32.0610197,25.2539417 L32.7614584,23.9999999 L32.7614584,23.9999999 Z M31.5876456,28.3807291 L31.6080187,26.9445645 L32.7730723,27.8937379 L34.1901987,27.5405184 L33.6766731,28.8628664 L34.5321317,30.0807291 L33.0497016,29.9488117 L32.1612771,31.0547115 L31.7586117,29.6508344 L30.3540771,29.1164552 L31.5876456,28.3807291 L31.5876456,28.3807291 Z M28.3807293,31.5876456 L29.1164552,30.3540771 L29.6508347,31.758612 L31.0547117,32.1612781 L29.9488115,33.0497021 L30.0807291,34.532132 L28.8628659,33.6766728 L27.5405176,34.1901979 L27.8937379,32.773072 L26.9445645,31.6080187 L28.3807293,31.5876456 L28.3807293,31.5876456 Z M24.0000001,32.7614584 L25.2539418,32.0610197 L25.0144603,33.5445723 L26.0289206,34.5952301 L24.6269707,34.8116779 L24,36.1614584 L23.3730288,34.8116773 L21.9710791,34.5952291 L22.9855398,33.544572 L22.7460583,32.0610197 L24.0000001,32.7614584 L24.0000001,32.7614584 Z M19.6192709,31.5876456 L21.0554356,31.6080187 L20.1062622,32.7730723 L20.4594817,34.1901987 L19.1371337,33.6766731 L17.9192708,34.5321317 L18.0511883,33.0497016 L16.9452884,32.1612771 L18.3491657,31.7586117 L18.8835447,30.3540771 L19.6192709,31.5876456 L19.6192709,31.5876456 Z M16.4123545,28.3807293 L17.645923,29.1164552 L16.241388,29.6508347 L15.8387218,31.0547117 L14.9502978,29.9488115 L13.4678681,30.0807291 L14.3233271,28.8628659 L13.809802,27.5405176 L15.226928,27.8937379 L16.3919813,26.9445645 L16.4123545,28.3807293 L16.4123545,28.3807293 Z M15.2385417,24.0000001 L15.9389803,25.2539418 L14.4554276,25.0144603 L13.4047699,26.0289206 L13.1883222,24.6269707 L11.8385417,24 L13.1883226,23.3730288 L13.4047709,21.9710791 L14.4554279,22.9855398 L15.9389803,22.7460583 L15.2385417,24.0000001 L15.2385417,24.0000001 Z M16.4123545,19.6192709 L16.3919813,21.0554356 L15.2269277,20.1062622 L13.8098013,20.4594817 L14.323327,19.1371337 L13.4678682,17.9192708 L14.9502983,18.0511883 L15.8387229,16.9452884 L16.2413882,18.3491657 L17.645923,18.8835447 L16.4123545,19.6192709 L16.4123545,19.6192709 Z M19.6192708,16.4123545 L18.8835447,17.645923 L18.3491654,16.241388 L16.9452882,15.8387218 L18.0511885,14.9502978 L17.9192709,13.4678681 L19.1371342,14.3233271 L20.4594825,13.809802 L20.1062622,15.226928 L21.0554355,16.3919813 L19.6192708,16.4123545 L19.6192708,16.4123545 Z" id="Star-2" fill="#E5B731"></path>
            </g>
        </g>
    </g>
</svg>